<svg width="13" height="15" viewBox="0 0 13 15" fill="none" xmlns="http://www.w3.org/2000/svg">
<path d="M1.04728 13.4849L1.04728 13.485C1.03371 13.6364 1.0844 13.7866 1.18702 13.8988C1.28964 14.011 1.43471 14.0749 1.58672 14.0749H11.412H11.4132C11.7124 14.0749 11.9548 13.8324 11.9548 13.5333V13.5332C11.9548 13.5042 11.9525 13.4756 11.948 13.4476L11.1572 4.64067C11.1321 4.36141 10.8981 4.14752 10.6178 4.14752H9.06144V3.48677C9.06144 2.07415 7.91236 0.925 6.49979 0.925C5.08728 0.925 3.93833 2.07415 3.93833 3.48677V4.14752H2.38089C2.10057 4.14752 1.86651 4.36141 1.84145 4.64067C1.84145 4.64067 1.84145 4.64067 1.84145 4.64068L1.04728 13.4849ZM2.87606 5.23073H3.99456C4.08314 5.40913 4.26719 5.53176 4.47994 5.53176C4.69269 5.53176 4.87674 5.40913 4.96532 5.23073H8.03451C8.1231 5.40913 8.30714 5.53176 8.51989 5.53176C8.73264 5.53176 8.91669 5.40913 9.00528 5.23073H10.1227L10.8195 12.9918H2.17917L2.87606 5.23073ZM5.02155 3.48677C5.02155 2.67155 5.68478 2.00822 6.49985 2.00822C7.31499 2.00822 7.97828 2.67156 7.97828 3.48677V4.14752H5.02155V3.48677Z" fill="#252525" stroke="#252525" stroke-width="0.15"/>
</svg>
