<svg width="17" height="20" viewBox="0 0 17 20" fill="none" xmlns="http://www.w3.org/2000/svg">
<path d="M15.1535 2.5H11.692V1.875C11.692 0.841133 10.8449 0 9.80384 0H7.28636C6.24526 0 5.39825 0.841133 5.39825 1.875V2.5H1.93671C1.06912 2.5 0.363281 3.20094 0.363281 4.0625V6.25C0.363281 6.59516 0.645082 6.875 0.992652 6.875H1.3366L1.88034 18.2142C1.92837 19.2156 2.75678 20 3.76629 20H13.3239C14.3335 20 15.1619 19.2156 15.2099 18.2142L15.7536 6.875H16.0975C16.4451 6.875 16.7269 6.59516 16.7269 6.25V4.0625C16.7269 3.20094 16.0211 2.5 15.1535 2.5ZM6.65699 1.875C6.65699 1.53039 6.93934 1.25 7.28636 1.25H9.80384C10.1509 1.25 10.4332 1.53039 10.4332 1.875V2.5H6.65699V1.875ZM1.62202 4.0625C1.62202 3.8902 1.7632 3.75 1.93671 3.75H15.1535C15.327 3.75 15.4682 3.8902 15.4682 4.0625V5.625C15.2742 5.625 2.42577 5.625 1.62202 5.625V4.0625ZM13.9525 18.1547C13.9365 18.4885 13.6604 18.75 13.3239 18.75H3.76629C3.42977 18.75 3.15364 18.4885 3.13767 18.1547L2.59676 6.875H14.4934L13.9525 18.1547Z" fill="#D3D3D3"/>
</svg>
